<svg xmlns="http://www.w3.org/2000/svg" viewBox="4240 1200 3680 1550" style="background-color: white;"><line x1="5090" y1="2000" x2="6370" y2="1950" stroke="#bdc3c7" stroke-width="1" /><line x1="6370" y1="1900" x2="7010" y2="1850" stroke="#bdc3c7" stroke-width="1" /><line x1="7010" y1="1800" x2="7330" y2="1750" stroke="#bdc3c7" stroke-width="1" /><line x1="5090" y1="2050" x2="4960" y2="2100" stroke="#bdc3c7" stroke-width="1" /><line x1="4960" y1="2150" x2="4830" y2="2200" stroke="#bdc3c7" stroke-width="1" /><line x1="4960" y1="2150" x2="5050" y2="2200" stroke="#bdc3c7" stroke-width="1" /><line x1="5090" y1="2050" x2="5180" y2="2100" stroke="#bdc3c7" stroke-width="1" /><line x1="5180" y1="2150" x2="5050" y2="2200" stroke="#bdc3c7" stroke-width="1" /><line x1="5180" y1="2150" x2="5270" y2="2200" stroke="#bdc3c7" stroke-width="1" /><g transform="translate(5000, 2000)">
                <rect width="180" height="50" rx="3" fill="#e3f2fd" stroke="#34495e" />
                <text x="10" y="30" font-family="Arial" font-size="9">Michel Maurice René SCHIFRES</text>
            </g><g transform="translate(6280, 1900)">
                <rect width="180" height="50" rx="3" fill="#e3f2fd" stroke="#34495e" />
                <text x="10" y="30" font-family="Arial" font-size="9">Paulette Solange MAUDUIT</text>
            </g><g transform="translate(6920, 1800)">
                <rect width="180" height="50" rx="3" fill="#e3f2fd" stroke="#34495e" />
                <text x="10" y="30" font-family="Arial" font-size="9">Alphonsine Marie MARCHAIS</text>
            </g><g transform="translate(7240, 1700)">
                <rect width="180" height="50" rx="3" fill="#e3f2fd" stroke="#34495e" />
                <text x="10" y="30" font-family="Arial" font-size="9">Alexandrine COURTIN</text>
            </g><g transform="translate(4870, 2100)">
                <rect width="180" height="50" rx="3" fill="#f1f8e9" stroke="#34495e" />
                <text x="10" y="30" font-family="Arial" font-size="9">Lucas Michel SCHIFRES</text>
            </g><g transform="translate(4740, 2200)">
                <rect width="180" height="50" rx="3" fill="#f1f8e9" stroke="#34495e" />
                <text x="10" y="30" font-family="Arial" font-size="9">Milan SCHIFRES</text>
            </g><g transform="translate(4960, 2200)">
                <rect width="180" height="50" rx="3" fill="#f1f8e9" stroke="#34495e" />
                <text x="10" y="30" font-family="Arial" font-size="9">Thomas SCHIFRES</text>
            </g><g transform="translate(5090, 2100)">
                <rect width="180" height="50" rx="3" fill="#f1f8e9" stroke="#34495e" />
                <text x="10" y="30" font-family="Arial" font-size="9">Blaise Jérémie SCHIFRES</text>
            </g><g transform="translate(4960, 2200)">
                <rect width="180" height="50" rx="3" fill="#f1f8e9" stroke="#34495e" />
                <text x="10" y="30" font-family="Arial" font-size="9">Jeanne Mara SCHIFRES</text>
            </g><g transform="translate(5180, 2200)">
                <rect width="180" height="50" rx="3" fill="#f1f8e9" stroke="#34495e" />
                <text x="10" y="30" font-family="Arial" font-size="9">Matei Adrien SCHIFRES</text>
            </g></svg>